<?xml version="1.0" encoding="UTF-8"?>
<svg version="1.1" xmlns="http://www.w3.org/2000/svg" width="2035" height="990">
<path d="M0 0 C6.98876012 6.41016232 13.14546124 14.21073989 18.19799805 22.22558594 C20.37849944 24.63333561 22.26130052 25.02181704 25.3972168 25.83886719 C26.63858398 26.16886719 27.87995117 26.49886719 29.15893555 26.83886719 C32.67338862 27.71214114 36.19987636 28.52820854 39.72924805 29.33886719 C51.52856594 32.0594353 62.79059526 34.77429791 73.7722168 39.96386719 C74.70291992 40.40085937 75.63362305 40.83785156 76.5925293 41.28808594 C83.73305127 44.92080047 90.0171819 49.6632659 96.3894043 54.47558594 C97.51603095 55.30634031 98.6435514 56.13588478 99.7722168 56.96386719 C100.64104492 57.6096875 101.50987305 58.25550781 102.4050293 58.92089844 C104.7520361 60.23827036 104.7520361 60.23827036 107.32299805 59.36621094 C109.81307014 57.94047588 111.80284918 56.41608181 113.9597168 54.52636719 C152.58014393 22.96435392 202.2950689 18.96536316 250.14526367 23.51416016 C264.37095577 25.27800809 278.00967781 30.58430528 290.7722168 36.96386719 C292.52211914 37.83785156 292.52211914 37.83785156 294.30737305 38.72949219 C320.70201673 52.8939233 341.18437053 75.15737013 350.0847168 103.96386719 C351.88126435 110.59842039 352.54446516 117.10854286 352.7722168 123.96386719 C353.5250293 124.01542969 354.2778418 124.06699219 355.0534668 124.12011719 C369.62911215 125.67673951 381.68746702 132.40225534 391.7722168 142.96386719 C392.53920898 143.73472656 393.30620117 144.50558594 394.09643555 145.29980469 C403.82526211 155.50763969 410.05247883 167.90304158 415.8972168 180.58886719 C416.35194366 181.57064941 416.35194366 181.57064941 416.81585693 182.57226562 C437.19654328 226.75704589 439.42682489 277.63257941 423.57641602 323.79248047 C417.06577027 341.37161929 407.06984651 357.83664662 394.7722168 371.96386719 C393.95366211 372.91519531 393.13510742 373.86652344 392.29174805 374.84667969 C368.75582478 401.67391761 333.59565664 421.96301348 299.0847168 430.40136719 C298.12476807 430.63637939 297.16481934 430.8713916 296.17578125 431.11352539 C281.07210306 434.52737913 265.84135559 435.31741596 250.40380859 435.27954102 C247.70784564 435.27636498 245.01296867 435.30002348 242.31713867 435.32519531 C227.49022435 435.38038685 213.62597525 433.57505606 199.4597168 429.02636719 C198.62722412 428.76766846 197.79473145 428.50896973 196.93701172 428.24243164 C194.54474899 427.49483503 192.1578867 426.73220388 189.7722168 425.96386719 C189.1009375 425.75020508 188.4296582 425.53654297 187.73803711 425.31640625 C178.02668795 422.21833834 178.02668795 422.21833834 176.7722168 420.96386719 C176.67712121 418.34698278 176.6466568 415.75657819 176.65869141 413.1394043 C176.65854538 412.31995834 176.65839935 411.50051239 176.6582489 410.65623474 C176.65894827 407.93453366 176.66674178 405.21290014 176.67456055 402.49121094 C176.67642464 400.60933978 176.67784858 398.72746813 176.67884827 396.84559631 C176.68267413 391.8823819 176.69250499 386.91919655 176.70355225 381.95599365 C176.7137649 376.89547112 176.71834557 371.83494392 176.72338867 366.77441406 C176.7341272 356.8375523 176.75120444 346.90071216 176.7722168 336.96386719 C182.53265309 338.77517281 188.01298036 340.84671297 193.46362305 343.44042969 C194.90556535 344.11427128 196.34771195 344.78767583 197.79003906 345.46069336 C198.53198517 345.80860931 199.27393127 346.15652527 200.0383606 346.51498413 C228.12807286 359.65104118 256.99475456 372.42377281 288.5222168 372.27636719 C289.75069336 372.27217773 290.97916992 372.26798828 292.24487305 372.26367188 C301.44457579 372.14952562 309.88391133 371.37265056 318.7722168 368.96386719 C319.74803711 368.72023438 320.72385742 368.47660156 321.72924805 368.22558594 C345.07606226 361.48662862 365.43822459 345.60151535 377.8581543 324.78417969 C382.78458907 315.67194776 384.38566322 304.19143066 384.7722168 293.96386719 C384.8237793 292.97 384.8753418 291.97613281 384.9284668 290.95214844 C385.64930922 265.09192647 377.62302129 229.12993742 359.79174805 209.53027344 C355.00174742 205.81501183 349.27163161 203.44237058 343.7722168 200.96386719 C343.74643555 201.64449219 343.7206543 202.32511719 343.6940918 203.02636719 C341.82193424 235.02324173 323.61564296 265.30660498 300.0534668 286.39746094 C297.33746403 288.64908967 294.56531203 290.80896861 291.7722168 292.96386719 C290.93045898 293.67929687 290.08870117 294.39472656 289.22143555 295.13183594 C265.05270617 314.89353217 232.61430623 322.12486632 202.0847168 322.27636719 C200.47282471 322.28482666 200.47282471 322.28482666 198.82836914 322.29345703 C189.23429082 322.20516338 180.72514606 321.11123407 172.2722168 316.40136719 C171.63276123 316.05130615 170.99330566 315.70124512 170.33447266 315.34057617 C158.89827923 308.84074494 145.8615532 297.0553429 141.54174805 284.34277344 C141.22592773 283.08335937 140.91010742 281.82394531 140.5847168 280.52636719 C140.26116211 279.26953125 139.93760742 278.01269531 139.60424805 276.71777344 C131.95649662 242.21312966 141.32484049 204.61457796 159.9362793 175.24121094 C163.48920697 169.78501461 167.4360123 164.8266108 171.7722168 159.96386719 C172.5353418 159.09246094 173.2984668 158.22105469 174.0847168 157.32324219 C176.28443354 154.84112938 178.51679667 152.39536101 180.7722168 149.96386719 C181.32135742 149.36058594 181.87049805 148.75730469 182.4362793 148.13574219 C192.74964257 137.26352672 205.81786607 129.28140021 218.7722168 121.96386719 C219.46831055 121.5686084 220.1644043 121.17334961 220.8815918 120.76611328 C232.68821451 114.22346429 244.4930202 111.81936506 257.7722168 109.96386719 C259.26847715 109.7384076 260.76458449 109.51192889 262.26049805 109.28417969 C268.16240641 108.4318764 273.80141865 107.87328618 279.7722168 107.96386719 C269.26713089 88.39410904 258.43329949 71.90808082 236.7175293 63.82714844 C215.46744793 58.09871415 191.25886669 64.49935021 172.5847168 74.70605469 C154.78536219 85.64902525 143.64716365 106.54420665 138.5847168 126.40917969 C136.49421106 135.52983081 135.40056757 144.67457721 134.7331543 153.99902344 C134.64937531 155.15292068 134.56559631 156.30681793 134.47927856 157.49568176 C133.48971961 171.9649703 133.10104051 186.45416431 132.70776367 200.94934082 C132.60485713 204.6919438 132.49481711 208.43433763 132.38549805 212.17675781 C132.17435539 219.4389476 131.97068338 226.70131869 131.7722168 233.96386719 C72.17357287 229.36522326 72.17357287 229.36522326 67.7722168 224.96386719 C67.65438315 223.32658723 67.60489188 221.68433427 67.58276367 220.04296875 C67.56604614 218.9896637 67.54932861 217.93635864 67.53210449 216.85113525 C67.51174133 215.12029694 67.51174133 215.12029694 67.4909668 213.35449219 C67.47255737 212.16273376 67.45414795 210.97097534 67.43518066 209.74310303 C67.3762276 205.90007658 67.32367016 202.05700086 67.2722168 198.21386719 C67.0126988 177.72377538 67.0126988 177.72377538 66.3190918 157.24511719 C66.28384399 156.43786194 66.24859619 155.63060669 66.21228027 154.79888916 C65.27436 136.1928835 61.30037857 117.61042921 52.7722168 100.96386719 C52.33264648 100.06410156 51.89307617 99.16433594 51.44018555 98.23730469 C47.61159078 90.74886864 42.73698574 83.92863613 36.7722168 77.96386719 C36.67199219 78.91527588 36.57176758 79.86668457 36.46850586 80.84692383 C36.08522652 84.45472021 35.68620616 88.06064537 35.28295898 91.66625977 C35.11214779 93.21235698 34.94533086 94.75890192 34.78295898 96.3059082 C33.34107817 109.9993257 31.08976639 123.13867371 25.0222168 135.65136719 C23.13703494 139.60255446 21.7722168 142.46672289 21.7722168 146.96386719 C22.94429858 148.76884893 22.94429858 148.76884893 24.6472168 150.46386719 C25.28788086 151.16511719 25.92854492 151.86636719 26.58862305 152.58886719 C27.30920898 153.37261719 28.02979492 154.15636719 28.7722168 154.96386719 C50.39297028 179.21953721 59.48301352 204.72818996 57.97485352 237.2421875 C56.74884719 253.70907731 48.02746584 269.35559733 37.7722168 281.96386719 C37.10834961 282.80304688 36.44448242 283.64222656 35.76049805 284.50683594 C19.97844958 303.32277172 -6.35158628 314.99557141 -30.39428711 317.73681641 C-36.55984832 318.23086879 -42.73361902 318.29939449 -48.9152832 318.33886719 C-50.20950195 318.35280518 -51.5037207 318.36674316 -52.8371582 318.38110352 C-77.923541 318.25828742 -101.39531827 308.64045606 -119.2277832 291.06542969 C-149.26849532 260.42928146 -162.60608569 215.6322344 -163.4777832 173.46386719 C-162.65190238 131.06865178 -147.3157861 95.08964973 -117.42700195 65.15917969 C-98.28808868 46.87491342 -76.35457364 35.85441831 -50.2277832 31.96386719 C-56.08527151 22.14966492 -62.82752326 17.05026173 -73.64916992 13.56811523 C-78.51436702 12.42805059 -83.37925278 12.52260393 -88.3527832 12.58886719 C-89.45936279 12.59974365 -90.56594238 12.61062012 -91.70605469 12.62182617 C-114.14057138 13.05663543 -134.91847435 20.88208509 -150.80981445 37.07470703 C-175.14966379 62.91202757 -185.79082488 99.19122072 -185.4387207 134.22558594 C-184.00137248 174.639914 -172.08570089 212.3417696 -157.18432617 249.57080078 C-156.29310525 251.80225124 -155.41575233 254.03870412 -154.5402832 256.27636719 C-154.06204102 257.46875 -153.58379883 258.66113281 -153.09106445 259.88964844 C-152.15067663 263.23845032 -152.14750336 264.69881339 -153.2277832 267.96386719 C-155.04345703 269.3984375 -155.04345703 269.3984375 -157.43481445 270.54199219 C-158.32152832 270.97632568 -159.20824219 271.41065918 -160.12182617 271.8581543 C-161.08491699 272.30553955 -162.04800781 272.7529248 -163.0402832 273.21386719 C-164.02915527 273.68767822 -165.01802734 274.16148926 -166.03686523 274.6496582 C-168.08953919 275.62755063 -170.14659189 276.59630087 -172.20776367 277.55615234 C-175.00815657 278.86149313 -177.79255704 280.19593853 -180.57543945 281.53808594 C-200.84243066 291.16685551 -220.10713065 295.03081817 -242.2277832 288.96386719 C-263.5871989 278.08088525 -276.91768086 252.22819574 -284.07641602 230.37304688 C-287.31313966 220.05809022 -290.15879253 209.75095493 -291.2277832 198.96386719 C-291.33735352 197.95195313 -291.44692383 196.94003906 -291.55981445 195.89746094 C-296.31780942 141.14879882 -286.44525575 86.76277168 -255.2277832 40.96386719 C-254.72988281 40.20187012 -254.23198242 39.43987305 -253.71899414 38.65478516 C-249.94895484 33.16701413 -249.94895484 33.16701413 -246.4543457 32.18261719 C-245.16657227 32.32183594 -245.16657227 32.32183594 -243.8527832 32.46386719 C-243.03600098 32.55216797 -242.21921875 32.64046875 -241.37768555 32.73144531 C-240.66821777 32.80814453 -239.95875 32.88484375 -239.2277832 32.96386719 C-239.74311283 41.00779899 -240.77591119 48.76244841 -242.4152832 56.65136719 C-242.6323291 57.72225586 -242.849375 58.79314453 -243.07299805 59.89648438 C-244.65180268 67.55027894 -246.46899786 75.13042363 -248.3527832 82.71386719 C-252.05638909 97.81138378 -254.24152367 112.68335404 -254.9777832 128.21386719 C-255.02265869 129.13498291 -255.06753418 130.05609863 -255.11376953 131.00512695 C-255.42037339 139.6897004 -254.8238693 148.30398971 -254.2277832 156.96386719 C-254.2184375 155.94365479 -254.2090918 154.92344238 -254.19946289 153.87231445 C-253.67478481 104.90054939 -246.34776374 60.41963145 -211.2277832 23.96386719 C-208.65296869 21.50998329 -205.96551023 19.23297427 -203.2277832 16.96386719 C-202.35766602 16.20589844 -201.48754883 15.44792969 -200.59106445 14.66699219 C-148.35690911 -30.24461801 -57.10798564 -48.46169679 0 0 Z M-58.2277832 77.96386719 C-59.33379883 78.85138672 -59.33379883 78.85138672 -60.4621582 79.75683594 C-85.21820888 100.34298447 -96.7446487 131.40467126 -99.8137207 162.51464844 C-103.0105192 200.605888 -95.0358701 238.24280622 -70.2277832 267.96386719 C-69.45176758 268.95128906 -68.67575195 269.93871094 -67.8762207 270.95605469 C-63.03961995 276.73806636 -55.17769777 283.10454643 -47.4777832 284.02636719 C-46.06102169 284.03922346 -44.64352092 284.01923123 -43.2277832 283.96386719 C-42.52524414 284.00898437 -41.82270508 284.05410156 -41.09887695 284.10058594 C-30.64477904 284.64292733 -20.44315205 281.43034714 -12.2277832 274.96386719 C-2.4513935 265.16599091 1.67676271 250.16234339 2.3972168 236.71386719 C2.12986019 224.31361294 -3.9387218 212.97059625 -12.2277832 203.96386719 C-12.84395508 203.23425781 -13.46012695 202.50464844 -14.0949707 201.75292969 C-19.90184149 195.29307745 -25.19976026 193.40521587 -33.7434082 192.65527344 C-45.62225477 192.25197926 -55.81718284 194.5352122 -65.4230957 201.69433594 C-67.2277832 202.96386719 -67.2277832 202.96386719 -70.2277832 203.96386719 C-70.46883789 202.75601563 -70.70989258 201.54816406 -70.95825195 200.30371094 C-72.38109707 193.90652932 -74.48687814 187.74349261 -76.5402832 181.52636719 C-80.06019531 170.74093197 -83.33992642 159.93482061 -86.2277832 148.96386719 C-85.69411133 148.79661133 -85.16043945 148.62935547 -84.6105957 148.45703125 C-71.86922907 144.35135731 -58.02151986 139.32083343 -48.2277832 129.96386719 C-46.99998268 128.89478319 -45.77211077 127.82578119 -44.54418945 126.75683594 C-35.24342998 118.37457284 -30.5874454 111.26187135 -28.2277832 98.96386719 C-27.97146118 97.78135376 -27.97146118 97.78135376 -27.70996094 96.57495117 C-26.85735932 91.95795154 -26.7926839 87.33556505 -26.6652832 82.65136719 C-26.60276367 81.64396484 -26.54024414 80.6365625 -26.47583008 79.59863281 C-26.3802605 75.1531996 -26.38390728 72.15157005 -29.01342773 68.45068359 C-30.99568095 66.44099128 -32.95147039 64.63150119 -35.2277832 62.96386719 C-42.61552156 62.96386719 -52.84257809 73.3721774 -58.2277832 77.96386719 Z M-253.2277832 165.96386719 C-253.2277832 167.94386719 -253.2277832 169.92386719 -253.2277832 171.96386719 C-252.8977832 171.96386719 -252.5677832 171.96386719 -252.2277832 171.96386719 C-252.2277832 169.98386719 -252.2277832 168.00386719 -252.2277832 165.96386719 C-252.5577832 165.96386719 -252.8877832 165.96386719 -253.2277832 165.96386719 Z M216.20336914 198.36035156 C195.62296493 221.41939197 185.16559453 248.3294428 185.7722168 278.96386719 C187.99331207 280.16908939 190.2220033 281.35274123 192.4597168 282.52636719 C193.08555664 282.86861328 193.71139648 283.21085937 194.35620117 283.56347656 C197.14518695 285.00907652 199.24457372 285.98413118 202.41674805 285.86230469 C239.84311168 271.58690894 266.52125256 228.57516853 282.27612305 194.34277344 C284.36330854 189.62889497 284.88552221 186.40771387 284.8347168 181.27636719 C284.82569336 180.096875 284.81666992 178.91738281 284.80737305 177.70214844 C284.79577148 176.79851562 284.78416992 175.89488281 284.7722168 174.96386719 C258.43019057 174.26613626 235.35825989 178.51392428 216.20336914 198.36035156 Z M-252.2277832 175.96386719 C-251.2277832 177.96386719 -251.2277832 177.96386719 -251.2277832 177.96386719 Z " fill="#FFF600" transform="translate(402.227783203125,412.0361328125)"/>
<path d="M0 0 C1.9351872 1.97702908 3.49998688 3.844486 4.91796875 6.21484375 C3.59850884 9.08623985 2.09610499 11.26411015 0.04296875 13.65234375 C-8.64017841 25.31500219 -7.43905038 38.38035233 -7.08203125 52.21484375 C2.48796875 50.89484375 12.05796875 49.57484375 21.91796875 48.21484375 C24.27456575 59.58798581 26.08805163 70.2176858 26.015625 81.84375 C26.01350258 83.1564109 26.01350258 83.1564109 26.01133728 84.49559021 C26.00579594 87.25621137 25.99325487 90.01674763 25.98046875 92.77734375 C25.97544615 94.66341028 25.97088458 96.54947809 25.96679688 98.43554688 C25.95584582 103.02867792 25.93862259 107.6217465 25.91796875 112.21484375 C23.27796875 112.21484375 20.63796875 112.21484375 17.91796875 112.21484375 C23.22619256 146.76107046 35.24460161 170.16188508 62.91796875 192.21484375 C63.22911621 191.73764893 63.54026367 191.2604541 63.86083984 190.76879883 C89.21634649 152.00046179 121.46755068 119.21991256 168.0546875 107.9609375 C188.03267671 104.10270096 212.87349817 102.49638672 231.27734375 113.05859375 C252.3295766 127.89540547 262.76042666 157.42625973 267.375 181.58984375 C268.81060336 191.17430358 269.15965556 200.65216511 269.16796875 210.33984375 C269.16864349 211.05393402 269.16931824 211.76802429 269.17001343 212.50375366 C269.0882725 267.77360762 254.76578961 320.52817506 233.22802734 371.10595703 C231.39684504 375.45151713 229.64499817 379.82700227 227.91796875 384.21484375 C244.34660038 354.3906252 255.94424594 323.75674076 261.91796875 290.21484375 C263.89796875 290.21484375 265.87796875 290.21484375 267.91796875 290.21484375 C268.63754561 365.90879423 250.07838981 417.83467383 200.91796875 475.21484375 C199.93183594 476.37113281 199.93183594 476.37113281 198.92578125 477.55078125 C197.27923484 479.46077509 195.60784308 481.34317365 193.91796875 483.21484375 C193.38042969 483.82972656 192.84289063 484.44460938 192.2890625 485.078125 C183.98936827 494.07106515 173.89035977 496.57190899 162.04296875 497.52734375 C143.2770944 496.80411533 129.36483332 486.38415559 115.68505859 474.71435547 C113.29886404 472.68948576 110.86417783 470.72906646 108.41796875 468.77734375 C107.65742187 468.17019531 106.896875 467.56304688 106.11328125 466.9375 C102.75824803 464.30481379 99.35016174 461.7458464 95.91796875 459.21484375 C96.32154446 452.95424618 99.39392045 448.31643773 102.48046875 443.02734375 C103.05619629 442.02630615 103.63192383 441.02526855 104.22509766 439.99389648 C106.11074846 436.72709579 108.01241267 433.4700694 109.91796875 430.21484375 C110.55814941 429.11720703 111.19833008 428.01957031 111.85791016 426.88867188 C119.43777099 413.9141012 127.20043358 401.067666 135.19824219 388.34619141 C147.60479901 368.5990343 159.74264033 348.68957963 170.91796875 328.21484375 C171.45373535 327.23515625 171.98950195 326.25546875 172.54150391 325.24609375 C189.2932446 294.39625507 203.06172079 261.76374489 209.91796875 227.21484375 C210.08022949 226.44237305 210.24249023 225.66990234 210.40966797 224.87402344 C215.7221953 198.78836294 215.5874415 167.75752256 207.91796875 142.21484375 C185.48275095 145.1750461 166.26756549 152.43016547 149.36230469 167.90087891 C148.09331207 169.05532756 146.79303846 170.1751942 145.48828125 171.2890625 C104.7676478 208.16949387 102.48397037 277.99545964 99.32550049 328.64703369 C99.05767258 332.90644175 98.77824929 337.16509043 98.5 341.42382812 C97.96174419 349.68682504 97.43562475 357.95053075 96.91796875 366.21484375 C89.72829312 365.69368449 82.65639898 364.98647775 75.55859375 363.7265625 C74.7256781 363.58209183 73.89276245 363.43762115 73.03460693 363.28877258 C71.28986293 362.98461696 69.54557887 362.67781151 67.80175781 362.3684082 C65.18822178 361.90592764 62.5728301 361.45534228 59.95703125 361.00585938 C49.48126058 359.17968174 39.19111452 356.96124603 28.91796875 354.21484375 C27.41395574 344.11172617 25.9959679 334.00563049 24.78125 323.86328125 C21.58236226 297.20723317 18.21258459 270.85949495 9.91796875 245.21484375 C9.61439453 244.27511719 9.31082031 243.33539062 8.99804688 242.3671875 C6.67642972 235.27621196 4.19540775 228.24900023 1.64825439 221.23620605 C0.84892155 219.02372755 0.06069782 216.80744865 -0.72705078 214.59082031 C-2.19956781 210.45924669 -3.70823277 206.34222439 -5.23852539 202.23171997 C-5.83895215 200.60515968 -6.42926779 198.97482857 -7.0090332 197.34078979 C-7.82906235 195.03836623 -8.68678335 192.75348398 -9.5546875 190.46875 C-9.79107437 189.77931305 -10.02746124 189.0898761 -10.27101135 188.37954712 C-11.35611192 185.62280515 -12.38211965 183.61555322 -14.99520874 182.11952209 C-18.44486122 180.79354095 -21.89092285 179.856907 -25.58203125 179.52734375 C-27.31453125 179.37265625 -27.31453125 179.37265625 -29.08203125 179.21484375 C-29.51322266 180.51808594 -29.51322266 180.51808594 -29.953125 181.84765625 C-30.65863889 183.95199179 -31.37777871 186.05186487 -32.1171875 188.14453125 C-34.12921771 193.91286122 -35.69471267 199.11457609 -36.08203125 205.21484375 C-36.159375 206.33632813 -36.159375 206.33632813 -36.23828125 207.48046875 C-38.02619808 256.0522093 -12.11174156 311.19067077 6.98510742 354.99536133 C8.84477266 359.41991424 9.03784758 363.17521103 8.98046875 367.90234375 C8.97595703 368.60423828 8.97144531 369.30613281 8.96679688 370.02929688 C8.95503802 371.75784913 8.93710329 373.4863574 8.91796875 375.21484375 C0.64329167 376.78372606 -7.63211279 378.34868965 -15.90847397 379.90866089 C-19.75152433 380.63314617 -23.59431037 381.35897679 -27.43652344 382.08789062 C-31.14471186 382.791327 -34.85355342 383.49121803 -38.56287384 384.18865967 C-39.97768219 384.45532161 -41.39225085 384.72325851 -42.80657196 384.99249268 C-44.78805153 385.36946683 -46.77047244 385.74148285 -48.75292969 386.11328125 C-49.88100037 386.32645996 -51.00907104 386.53963867 -52.17132568 386.75927734 C-55.08203125 387.21484375 -55.08203125 387.21484375 -59.08203125 387.21484375 C-88.05195392 317.71305302 -88.05195392 317.71305302 -98.26953125 287.33984375 C-98.49672852 286.66996429 -98.72392578 286.00008484 -98.95800781 285.30990601 C-108.82828308 256.05386137 -108.97768456 230.26191675 -99.11328125 201.15576172 C-98.32741716 198.82616584 -97.57116036 196.48827276 -96.81640625 194.1484375 C-93.11034654 182.91134697 -88.44657061 173.2232451 -80.08203125 164.65234375 C-63.02331044 146.35673684 -51.66988731 120.3593751 -51.78125 95.19140625 C-52.19329194 91.11379644 -53.12353085 87.19478758 -54.08203125 83.21484375 C-55.34660156 83.50359375 -56.61117187 83.79234375 -57.9140625 84.08984375 C-59.5741808 84.46501173 -61.23433915 84.84000251 -62.89453125 85.21484375 C-63.72791016 85.405625 -64.56128906 85.59640625 -65.41992188 85.79296875 C-66.22236328 85.9734375 -67.02480469 86.15390625 -67.8515625 86.33984375 C-68.58995361 86.50742187 -69.32834473 86.675 -70.08911133 86.84765625 C-72.08203125 87.21484375 -72.08203125 87.21484375 -75.08203125 87.21484375 C-79.05577778 63.46773448 -75.51104555 36.85750039 -65.08203125 15.21484375 C-64.74300781 14.38210938 -64.40398438 13.549375 -64.0546875 12.69140625 C-58.70447611 5.9745072 -48.869648 4.01228573 -40.89453125 1.96484375 C-39.94900391 1.70960938 -39.00347656 1.454375 -38.02929688 1.19140625 C-27.30758297 -1.64779325 -10.20858093 -5.91295499 0 0 Z M-11.08203125 70.21484375 C-8.63380321 81.23186993 -4.83145081 89.95391707 4.91796875 96.21484375 C7.22796875 96.87484375 9.53796875 97.53484375 11.91796875 98.21484375 C11.91796875 88.97484375 11.91796875 79.73484375 11.91796875 70.21484375 C4.32796875 70.21484375 -3.26203125 70.21484375 -11.08203125 70.21484375 Z M-25.08203125 104.21484375 C-26.5563747 106.21927537 -26.5563747 106.21927537 -28.015625 108.81640625 C-28.58216797 109.78191406 -29.14871094 110.74742187 -29.73242188 111.7421875 C-30.32216797 112.76441406 -30.91191406 113.78664063 -31.51953125 114.83984375 C-32.39834961 116.33837891 -32.39834961 116.33837891 -33.29492188 117.8671875 C-34.42567492 119.80525458 -35.5437875 121.75076253 -36.64794922 123.70410156 C-37.70813567 125.56024004 -38.83340229 127.37954569 -39.9921875 129.17578125 C-41.75715612 133.55935513 -41.75715612 133.55935513 -41.08203125 144.21484375 C-28.87203125 144.21484375 -16.66203125 144.21484375 -4.08203125 144.21484375 C-3.10499921 137.37561949 -2.94564834 131.08513302 -3.08203125 124.21484375 C-3.04078125 123.44398438 -2.99953125 122.673125 -2.95703125 121.87890625 C-2.95703125 118.50545075 -3.78649421 116.53199121 -6.05859375 114.09375 C-11.10373394 109.83740108 -18.12539839 104.21484375 -25.08203125 104.21484375 Z M224.91796875 387.21484375 C225.91796875 389.21484375 225.91796875 389.21484375 225.91796875 389.21484375 Z M223.91796875 389.21484375 C224.91796875 391.21484375 224.91796875 391.21484375 224.91796875 391.21484375 Z M222.91796875 391.21484375 C223.91796875 393.21484375 223.91796875 393.21484375 223.91796875 393.21484375 Z " fill="#FFF600" transform="translate(958.08203125,341.78515625)"/>
<path d="M0 0 C1.07378906 0.28875 2.14757813 0.5775 3.25390625 0.875 C15.04990617 4.63361164 26.28117646 12.54097258 32.375 23.46484375 C33.94944402 26.83787138 35 29.24634471 35 33 C35.65097656 33.23976563 36.30195312 33.47953125 36.97265625 33.7265625 C45.96585018 37.50950601 56.25924277 41.9291392 60.875 50.9375 C61.64795405 52.93450914 62.360671 54.95628723 63 57 C63.31839844 57.86109375 63.63679688 58.7221875 63.96484375 59.609375 C69.96839887 77.86903574 68.76279158 103.26411244 60.765625 120.6171875 C60.18296875 121.73351562 59.6003125 122.84984375 59 124 C58.53883789 124.89187012 58.53883789 124.89187012 58.06835938 125.80175781 C51.98755835 137.41224857 44.26273443 147.64327301 35.8828125 157.6875 C33.89627792 160.05246466 33.89627792 160.05246466 32 163 C32.59224365 163.27384521 33.1844873 163.54769043 33.79467773 163.82983398 C35.92117965 164.95817714 37.49105363 166.13079694 39.28515625 167.72265625 C40.19672485 168.52340576 40.19672485 168.52340576 41.12670898 169.34033203 C41.76552002 169.90864746 42.40433105 170.47696289 43.0625 171.0625 C48.501448 175.89207906 48.501448 175.89207906 54.1484375 180.47265625 C66.70431536 190.16213622 75.7856615 204.06826587 78 220 C78.16435547 221.16402344 78.16435547 221.16402344 78.33203125 222.3515625 C81.0516014 245.19595177 76.81213948 268.71840234 63.12109375 287.58984375 C61.13584649 290.11122433 59.07880941 292.55551092 57 295 C56.12794922 296.14275391 56.12794922 296.14275391 55.23828125 297.30859375 C40.53982058 315.70558248 10.57674568 325.23024233 -12 328 C-12.85207031 328.11085938 -13.70414063 328.22171875 -14.58203125 328.3359375 C-26.60319226 329.66961953 -38.6676616 329.26681906 -50.6875 328.1875 C-51.91412354 328.08248169 -51.91412354 328.08248169 -53.16552734 327.9753418 C-65.32979789 326.76997099 -76.56707584 323.81192061 -87.8125 319.0625 C-88.95380371 318.5866748 -90.09510742 318.11084961 -91.27099609 317.62060547 C-99.61906149 314.09760027 -107.90499323 310.43706467 -116.125 306.625 C-117.74305542 305.89422241 -117.74305542 305.89422241 -119.39379883 305.14868164 C-120.38017334 304.67938232 -121.36654785 304.21008301 -122.3828125 303.7265625 C-123.25309082 303.32002441 -124.12336914 302.91348633 -125.02001953 302.49462891 C-127 301 -127 301 -127.83325195 298.58032227 C-128.09254095 294.56798645 -127.11102213 291.16384749 -126.0625 287.3125 C-125.83578613 286.47380371 -125.60907227 285.63510742 -125.37548828 284.77099609 C-122.81327165 275.74311979 -119.14101357 267.40086788 -115 259 C-114.5472168 258.0713916 -114.09443359 257.1427832 -113.62792969 256.18603516 C-112.18973017 253.25872211 -110.72574947 250.34604472 -109.25 247.4375 C-108.56043213 246.05232178 -108.56043213 246.05232178 -107.85693359 244.63916016 C-107.19298584 243.36177979 -107.19298584 243.36177979 -106.515625 242.05859375 C-106.12665039 241.29861084 -105.73767578 240.53862793 -105.33691406 239.75561523 C-104 238 -104 238 -102.08251953 237.13549805 C-99.51430041 236.96839821 -98.39060073 237.5050293 -96.1640625 238.7734375 C-95.43654785 239.18174805 -94.7090332 239.59005859 -93.95947266 240.01074219 C-93.18909668 240.46094727 -92.4187207 240.91115234 -91.625 241.375 C-90.82497559 241.83036133 -90.02495117 242.28572266 -89.20068359 242.75488281 C-84.2422801 245.60603891 -79.40580995 248.61208473 -74.625 251.75 C-54.16064394 265.13545423 -32.19353951 270.19217647 -7.9375 270.3125 C-6.54712524 270.32083862 -6.54712524 270.32083862 -5.12866211 270.3293457 C10.99461682 270.16041729 24.40189256 265.61368616 36.4375 254.8125 C39.39159165 251.38575369 39.16268648 247.96240301 39.1875 243.625 C39.20167969 242.50351562 39.21585938 241.38203125 39.23046875 240.2265625 C38.89158508 235.48219117 38.10866081 233.03824099 34.6015625 229.75390625 C7.10247579 209.50851564 -26.98804874 210.14706931 -59.64892578 215.00561523 C-72.43328569 217.08318446 -85.1375549 219.70587113 -97.81347656 222.35742188 C-98.65118591 222.53138489 -99.48889526 222.7053479 -100.35198975 222.88458252 C-101.92735098 223.21274814 -103.50184116 223.54513462 -105.07525635 223.88250732 C-108.77247363 224.65211669 -112.21968002 225.19143213 -116 225 C-116.04969116 218.75611512 -116.08585699 212.51234712 -116.10986328 206.26831055 C-116.11987844 204.14719638 -116.13349446 202.02609587 -116.15087891 199.9050293 C-116.17532525 196.84420384 -116.18652825 193.78356203 -116.1953125 190.72265625 C-116.20563507 189.78478775 -116.21595764 188.84691925 -116.22659302 187.88063049 C-116.22823454 178.09795249 -114.95802564 169.31375803 -108 162 C-97.29412038 155.85152631 -83.9881625 153.28950276 -72.22119141 149.88305664 C-44.250938 141.75779931 -16.38760562 131.17895856 6 112 C6.83273437 111.30132813 7.66546875 110.60265625 8.5234375 109.8828125 C21.18243646 99.0103907 21.18243646 99.0103907 27 84 C27.25561424 79.90265404 27.31329259 75.93987776 26 72 C-0.22286705 65.80367036 -28.35575575 78.05327922 -51 90 C-52.24257568 90.65162109 -52.24257568 90.65162109 -53.51025391 91.31640625 C-63.74014519 96.79692962 -71.84221125 103.02860416 -79.43725586 111.86987305 C-83.87193124 116.79325072 -83.87193124 116.79325072 -87.46435547 117.45166016 C-89.69417697 117.45644985 -91.79693868 117.3317351 -94 117 C-94.23589844 117.8146875 -94.47179688 118.629375 -94.71484375 119.46875 C-96.2713958 123.74571976 -98.33094865 127.54341464 -100.5625 131.5 C-101.00577637 132.29390137 -101.44905273 133.08780273 -101.90576172 133.90576172 C-104.64787805 138.76425691 -107.54259447 143.47671352 -110.625 148.125 C-115.43698731 155.42779923 -119.33890936 163.06511553 -123 171 C-123.30679687 171.65806641 -123.61359375 172.31613281 -123.9296875 172.99414062 C-139.75221551 207.44532874 -141.78350983 246.42397269 -142.65893555 283.7722168 C-142.70594604 285.64067261 -142.70594604 285.64067261 -142.75390625 287.546875 C-142.78979858 289.19961426 -142.78979858 289.19961426 -142.82641602 290.88574219 C-142.99933355 293.98804319 -143.43036354 296.94778164 -144 300 C-153.31458984 299.48902118 -162.38568845 298.48249205 -171.5625 296.8125 C-172.76036133 296.59762939 -173.95822266 296.38275879 -175.19238281 296.16137695 C-186.01670888 294.1420743 -196.50479135 291.30530922 -207 288 C-208.10425596 283.28595289 -208.4262754 278.5636374 -208.796875 273.75 C-208.94897643 271.86184538 -209.10175623 269.97374531 -209.25512695 268.08569336 C-209.33526031 267.09407196 -209.41539368 266.10245056 -209.49795532 265.08078003 C-213.10255577 221.02120631 -219.58894261 177.75196277 -231 135 C-231.75574661 132.15464432 -232.51129047 129.30923868 -233.26513672 126.46337891 C-233.69780314 124.83797339 -234.13524832 123.21382849 -234.57861328 121.59130859 C-235.37627355 118.63487415 -236 116.07797958 -236 113 C-239.11550675 113.44116544 -242.21223402 113.96276979 -245.3125 114.5 C-246.63411133 114.685625 -246.63411133 114.685625 -247.98242188 114.875 C-252.74526398 115.64036935 -252.74526398 115.64036935 -256.21777344 118.68432617 C-257.03681806 120.78357315 -257.55818182 122.79166176 -258 125 C-258.30164062 126.21300781 -258.60328125 127.42601562 -258.9140625 128.67578125 C-260.36568217 136.10137418 -261.66899976 143.42711574 -262 151 C-262.05285156 152.16917969 -262.10570312 153.33835937 -262.16015625 154.54296875 C-263.47828471 199.67478604 -247.54149369 245.13688581 -230.01733398 286.13134766 C-225.86724442 295.8432108 -227 300.59161137 -227 313 C-248.12 313 -269.24 313 -291 313 C-305.07834472 284.84331057 -305.07834472 284.84331057 -308.75 275.625 C-309.41829834 273.95957153 -309.41829834 273.95957153 -310.10009766 272.26049805 C-317.79494276 252.69758991 -323.36656348 232.69803202 -327 212 C-327.12600586 211.2879541 -327.25201172 210.5759082 -327.38183594 209.84228516 C-333.55630868 173.29930032 -332.05336234 132.53599882 -311 101 C-308.1781538 97.15885574 -305.15948816 93.56650757 -302 90 C-301.18917969 89.02417969 -300.37835937 88.04835938 -299.54296875 87.04296875 C-291.00568155 77.48171907 -281.3989075 74.77033333 -269 73 C-264.45753941 72.81015916 -259.91571528 72.81418517 -255.36987305 72.81469727 C-253.20406256 72.81251668 -251.03876713 72.79434283 -248.87304688 72.77539062 C-226.75016869 72.67854141 -212.77282068 83.38511219 -197.47265625 98.49609375 C-195.20336348 100.92491501 -193.08427661 103.4105576 -191 106 C-190.55575684 106.54978516 -190.11151367 107.09957031 -189.65380859 107.66601562 C-188.22037412 109.46579956 -186.82447836 111.28923576 -185.4375 113.125 C-184.77379395 113.96780518 -184.77379395 113.96780518 -184.09667969 114.82763672 C-180.72685602 119.44738303 -180.57379143 122.51331506 -181 128 C-178.69 127.67 -176.38 127.34 -174 127 C-173.74347656 126.22398437 -173.48695313 125.44796875 -173.22265625 124.6484375 C-162.09152937 93.24141956 -134.17693004 69.17376129 -106 53 C-104.87722656 52.33355469 -103.75445313 51.66710937 -102.59765625 50.98046875 C-86.68422107 41.80292549 -68.7057456 37.39102491 -51 33 C-70.31479265 35.97150656 -88.93986067 42.52603816 -106 52 C-107.40492222 52.76437014 -108.80987086 53.52869174 -110.21484375 54.29296875 C-115.98809782 57.46819214 -121.58745847 60.61310607 -126.875 64.5625 C-131.40238864 67.74130479 -135.63987091 67.60427343 -141 67 C-136.4475233 42.93690888 -119.92645502 28.19259896 -100.75390625 14.71875 C-87.98523429 6.42947482 -73.80487047 1.28446959 -59 -2 C-58.03964844 -2.22558594 -57.07929687 -2.45117188 -56.08984375 -2.68359375 C-37.69093768 -6.27422818 -17.99130809 -4.88965423 0 0 Z M-47 31 C-47 31.33 -47 31.66 -47 32 C-45.35 32 -43.7 32 -42 32 C-42 31.67 -42 31.34 -42 31 C-43.65 31 -45.3 31 -47 31 Z " fill="#FFF600" transform="translate(1565,408)"/>
<path d="M0 0 C0.82016602 0.17692383 1.64033203 0.35384766 2.48535156 0.53613281 C25.28409376 5.52308851 48.14254477 14.01285445 67 28 C67.62551758 28.46390137 68.25103516 28.92780273 68.89550781 29.40576172 C73.98602358 33.20000275 79.00235188 37.084595 84 41 C85.03809814 41.80727539 85.03809814 41.80727539 86.09716797 42.63085938 C123.86596061 72.09931151 151.07428166 114.5794403 159.55078125 162.08691406 C160.1223055 167.06538726 160.12370547 171.95848946 160.09765625 176.96484375 C160.09553383 178.51480797 160.09553383 178.51480797 160.09336853 180.09608459 C160.08779839 183.3765866 160.07525141 186.65701883 160.0625 189.9375 C160.05748114 192.16992089 160.05291891 194.40234285 160.04882812 196.63476562 C160.03783875 202.08986731 160.0211305 207.54492867 160 213 C150.25659285 214.9030205 140.8443836 216.52655438 130.875 216.375 C129.85365967 216.36194824 128.83231934 216.34889648 127.7800293 216.33544922 C112.59234536 215.99210264 102.36055313 213.27553643 91 203 C89.9702668 202.09480776 88.94032042 201.18985799 87.91015625 200.28515625 C78.36085626 191.78551531 69.26867122 182.75110231 61 173 C59.99300424 171.8326283 58.98510742 170.66603357 57.9765625 169.5 C56.88001932 168.22932975 55.78366648 166.95849522 54.6875 165.6875 C53.89484741 164.77037231 53.89484741 164.77037231 53.08618164 163.8347168 C52.33776001 162.96327026 52.33776001 162.96327026 51.57421875 162.07421875 C51.12651123 161.55432373 50.67880371 161.03442871 50.2175293 160.4987793 C49.0550669 159.06778739 48.02267472 157.53401208 47 156 C45.56206608 156.31049726 44.1246682 156.6234776 42.6875 156.9375 C41.88699219 157.11152344 41.08648438 157.28554688 40.26171875 157.46484375 C37.854599 157.99886159 37.854599 157.99886159 35 159 C34.67 162.96 34.34 166.92 34 171 C29.06647911 171.97229974 24.91586906 172.16682135 20 171 C15.9077087 167.42421149 13.33001389 163.18864328 10.54589844 158.55517578 C8.84764738 155.74818027 7.07607254 152.99739946 5.2890625 150.24609375 C2.53825857 146.00192886 -0.18668925 141.74292851 -2.890625 137.46875 C-7.30205872 130.5050757 -11.80784188 123.60546922 -16.328125 116.7121582 C-19.72279339 111.52441087 -23.07866882 106.3149822 -26.390625 101.07421875 C-27.12562279 99.9140446 -27.86064859 98.7538882 -28.59570312 97.59375 C-30.00751763 95.36480302 -31.41094619 93.13123907 -32.81054688 90.89453125 C-33.7628418 89.39019531 -33.7628418 89.39019531 -34.734375 87.85546875 C-35.29350586 86.96496826 -35.85263672 86.07446777 -36.42871094 85.15698242 C-37.98375554 82.76099985 -37.98375554 82.76099985 -41 81 C-45.02040416 86.43514244 -49.02993316 91.87816814 -53.03222656 97.32666016 C-54.89818837 99.86168271 -56.77284778 102.39006673 -58.6484375 104.91796875 C-68.64001438 117.08837405 -68.64001438 117.08837405 -73.0625 131.5625 C-71.46722462 136.72368505 -69.56261498 141.71115665 -66.50390625 146.19140625 C-64.423117 150.07734773 -63.68391741 154.01644609 -62.8125 158.3125 C-62.63525391 159.14845703 -62.45800781 159.98441406 -62.27539062 160.84570312 C-61.84202377 162.89541123 -61.41988068 164.94748682 -61 167 C-76.2699502 164.37843333 -85.1191594 152.69876798 -93.70947266 140.77441406 C-96.2841243 137.23438982 -98.93062367 133.7475538 -101.5625 130.25 C-102.60571898 128.85956271 -103.64870897 127.46895356 -104.69140625 126.078125 C-105.83416016 124.55445313 -105.83416016 124.55445313 -107 123 C-110.21630141 124.52603415 -112.28769299 126.09800771 -114.75 128.6875 C-117.28985451 131.29713073 -119.84168915 133.77770137 -122.625 136.125 C-133.67258348 145.69667842 -143.35017569 156.23810037 -152 168 C-152.55139648 168.74958984 -153.10279297 169.49917969 -153.67089844 170.27148438 C-156.51753715 174.1565693 -159.34607068 178.05440371 -162.15234375 181.96875 C-162.6510498 182.65453125 -163.14975586 183.3403125 -163.66357422 184.046875 C-165.18554815 186.18915662 -165.18554815 186.18915662 -166.81640625 189.46875 C-169 192 -169 192 -171.07446289 192.29345703 C-171.85684326 192.31263184 -172.63922363 192.33180664 -173.4453125 192.3515625 C-176.91462306 192.49277055 -176.91462306 192.49277055 -179.52246094 194.60449219 C-180.80232597 196.81479552 -181.86340977 199.02994992 -182.875 201.375 C-183.59703001 202.92659641 -184.3234414 204.47616315 -185.0546875 206.0234375 C-185.51077393 207.05863525 -185.51077393 207.05863525 -185.97607422 208.11474609 C-187.14095767 210.25953151 -188.07711819 211.48267517 -190 213 C-192.48674011 213.36076355 -192.48674011 213.36076355 -195.48120117 213.34057617 C-197.16260445 213.34023628 -197.16260445 213.34023628 -198.87797546 213.33988953 C-200.08742325 213.32440567 -201.29687103 213.30892181 -202.54296875 213.29296875 C-203.78170242 213.28872391 -205.0204361 213.28447906 -206.29670715 213.28010559 C-209.58649001 213.26614733 -212.87583203 213.23920213 -216.16546631 213.20599365 C-219.52366746 213.17527933 -222.88193318 213.16159739 -226.24023438 213.14648438 C-232.82699574 213.11337359 -239.4134618 213.06314257 -246 213 C-246.63701816 171.58728579 -246.63701816 171.58728579 -243 157 C-242.70198486 155.76636719 -242.70198486 155.76636719 -242.39794922 154.5078125 C-234.34014462 121.96273203 -218.2902322 90.27830266 -195 66 C-193.86955672 64.67127852 -192.74441281 63.33802755 -191.625 62 C-162.92643502 29.32277033 -119.77186009 8.99017342 -78 0 C-77.20964355 -0.17934082 -76.41928711 -0.35868164 -75.60498047 -0.54345703 C-51.98777814 -5.74182266 -23.54115826 -5.33572066 0 0 Z " fill="#FFF600" transform="translate(1016,137)"/>
<path d="M0 0 C1.59247878 1.50454569 3.17327732 3.02049831 4.7512207 4.5402832 C5.74025391 5.48846924 5.74025391 5.48846924 6.74926758 6.45581055 C16.22783069 15.59091615 25.05132117 24.85218737 32.7512207 35.5402832 C33.19626953 36.15162109 33.64131836 36.76295898 34.09985352 37.39282227 C65.12283552 80.28852595 77.96552317 125.61463435 78.0012207 178.2902832 C78.00189545 179.19146881 78.00257019 180.09265442 78.00326538 181.02114868 C77.95286127 223.60320419 68.6829632 265.59452073 46.7512207 302.5402832 C38.22581672 300.34373409 29.9018011 297.67109933 21.5637207 294.8527832 C19.70650391 294.22919922 19.70650391 294.22919922 17.81176758 293.59301758 C14.79064417 292.57820006 11.7704993 291.56057349 8.7512207 290.5402832 C9.35374678 283.81685732 11.56206213 277.81147486 13.8137207 271.4777832 C14.2156665 270.32745605 14.6176123 269.17712891 15.03173828 267.99194336 C16.93544676 262.56762687 18.87826567 257.16210208 20.9152832 251.78637695 C38.49228963 205.30952131 42.53051387 154.12741747 22.6262207 107.52856445 C11.94226621 84.41007508 -1.0261213 63.59985876 -18.2253418 44.78637695 C-19.82289858 43.01302724 -21.33261422 41.22344338 -22.8112793 39.3527832 C-26.00003649 35.67344798 -29.50475507 32.64395814 -33.2487793 29.5402832 C-33.7619873 29.10941406 -34.27519531 28.67854492 -34.80395508 28.23461914 C-79.20023144 -8.90052436 -135.128986 -25.50787891 -192.7487793 -20.7722168 C-247.01919793 -15.73234397 -294.53218167 8.26071442 -330.09545898 49.69165039 C-343.67414271 66.25901689 -354.35516623 84.60589545 -364.2487793 103.5402832 C-364.68528809 104.35787109 -365.12179687 105.17545898 -365.5715332 106.01782227 C-372.17044236 118.45826287 -375.83315477 130.68391814 -378.2487793 144.5402832 C-378.37865234 145.24765625 -378.50852539 145.9550293 -378.64233398 146.68383789 C-387.32247314 195.82266487 -373.8632405 250.76412421 -345.62036133 291.63549805 C-333.72914872 308.14942485 -319.93802863 322.68183606 -303.9362793 335.2277832 C-302.79461304 336.124729 -302.79461304 336.124729 -301.62988281 337.03979492 C-295.10913119 342.06802043 -288.28330968 346.47439318 -281.17919922 350.6328125 C-280.03608276 351.31790894 -280.03608276 351.31790894 -278.86987305 352.0168457 C-278.1936792 352.40952637 -277.51748535 352.80220703 -276.82080078 353.20678711 C-274.82250159 354.9018811 -274.50260017 355.95413735 -274.2487793 358.5402832 C-275.12228522 361.11638541 -276.05228767 363.45790984 -277.1862793 365.9152832 C-277.50258301 366.61339111 -277.81888672 367.31149902 -278.14477539 368.03076172 C-280.40483152 372.92386613 -282.79801085 377.74323412 -285.3737793 382.4777832 C-285.99510742 383.62118164 -286.61643555 384.76458008 -287.2565918 385.94262695 C-289.2487793 388.5402832 -289.2487793 388.5402832 -291.53393555 389.5949707 C-295.26818733 389.51974837 -298.22516658 388.26577112 -301.5612793 386.7277832 C-302.60807861 386.25453613 -302.60807861 386.25453613 -303.67602539 385.77172852 C-317.08909915 379.51169275 -328.90201881 370.96054335 -340.2487793 361.5402832 C-340.82289551 361.06381348 -341.39701172 360.58734375 -341.98852539 360.09643555 C-344.79531617 357.75731201 -347.58592147 355.40073197 -350.3581543 353.02075195 C-352.04519699 351.57308694 -353.73965726 350.13382929 -355.4519043 348.71606445 C-375.93812208 331.51930034 -391.15593132 307.62284976 -402.2487793 283.5402832 C-402.76827148 282.42911133 -403.28776367 281.31793945 -403.82299805 280.1730957 C-410.14759868 266.06309429 -414.87390235 251.41488921 -418.0612793 236.2902832 C-418.2560083 235.37005371 -418.4507373 234.44982422 -418.65136719 233.50170898 C-421.64233515 218.45336025 -422.62866624 203.59782646 -422.5612793 188.2902832 C-422.55945648 187.4241037 -422.55763367 186.55792419 -422.55575562 185.66549683 C-422.33852757 123.88569962 -404.90250694 64.81047323 -364.2487793 17.5402832 C-363.41862305 16.57477539 -362.5884668 15.60926758 -361.7331543 14.61450195 C-341.14541715 -8.82437343 -313.40092207 -26.4857554 -285.2487793 -39.4597168 C-284.48049805 -39.81630371 -283.7122168 -40.17289063 -282.9206543 -40.5402832 C-196.28229767 -80.32425787 -94.1604424 -72.29839712 0 0 Z " fill="#FFF600" transform="translate(1145.248779296875,147.459716796875)"/>
<path d="M0 0 C9.08396169 8.1803846 15.80442112 16.72778013 21.3828125 27.65234375 C21.87152832 28.60693481 21.87152832 28.60693481 22.37011719 29.58081055 C23.33811721 31.56037563 24.21798823 33.55789502 25.0703125 35.58984375 C25.36164063 36.24887695 25.65296875 36.90791016 25.953125 37.58691406 C29.04032837 45.86456953 28.52078645 54.70495868 28.46142578 63.40966797 C28.44546851 66.18768358 28.4612628 68.96421856 28.48046875 71.7421875 C28.51276393 97.95184291 22.04309558 122.43041342 3.46875 141.69287109 C-2.28831832 147.44563882 -8.23739786 152.92881817 -14.9296875 157.58984375 C-7.16373056 153.6921011 -0.56265005 149.18145382 6.0703125 143.58984375 C6.90304687 142.95046875 7.73578125 142.31109375 8.59375 141.65234375 C17.22685868 134.46262548 23.39319497 124.18843088 29.0703125 114.58984375 C29.41400879 114.01331055 29.75770508 113.43677734 30.11181641 112.84277344 C31.11039979 111.13160636 32.0595103 109.39187946 33.0078125 107.65234375 C33.55308594 106.65332031 34.09835937 105.65429688 34.66015625 104.625 C39.78273407 92.11578725 38.48318077 76.43156878 38.6953125 63.15234375 C38.73359672 61.14907352 38.77265403 59.1458179 38.8125 57.14257812 C38.90733274 52.29178876 38.99176544 47.44092303 39.0703125 42.58984375 C40.67845194 43.04993045 42.28490652 43.515909 43.890625 43.984375 C44.78539551 44.24323486 45.68016602 44.50209473 46.60205078 44.76879883 C51.38408037 46.35949769 53.81661698 48.80490604 56.06640625 53.18359375 C58.15835322 57.48181502 59.30336207 61.73508117 60.2578125 66.40234375 C60.42506836 67.19278076 60.59232422 67.98321777 60.76464844 68.79760742 C61.97859237 74.71770426 62.85207278 80.54278497 63.0703125 86.58984375 C63.121875 87.51925781 63.1734375 88.44867187 63.2265625 89.40625 C64.21504453 121.65547624 52.04946232 148.77634924 30.3828125 172.2109375 C17.06577548 185.91038944 6.32751116 191.26015508 -12.69140625 191.734375 C-39.00052611 192.10447918 -39.00052611 192.10447918 -44.9296875 188.58984375 C-43.99866817 182.43416299 -43.13546957 176.98138632 -39.9296875 171.58984375 C-43.40986425 171.58984375 -46.37361223 172.32384378 -49.77734375 173.0703125 C-59.03832195 174.92718726 -68.17021591 175.01180365 -77.58666992 174.92602539 C-80.38814575 174.90216525 -83.18868069 174.90552552 -85.99023438 174.91210938 C-87.80208892 174.90653838 -89.61393954 174.89943215 -91.42578125 174.890625 C-92.65886269 174.89199211 -92.65886269 174.89199211 -93.91685486 174.89338684 C-110.80488498 174.68924357 -122.48034379 166.26687327 -133.9296875 154.58984375 C-152.69123238 134.85113508 -154.74930179 110.29296245 -154.11328125 84.31152344 C-152.96935588 61.12269588 -143.25417862 40.55525376 -128.9296875 22.58984375 C-128.45144531 21.9453125 -127.97320313 21.30078125 -127.48046875 20.63671875 C-112.17334022 0.96269169 -83.85671518 -10.42801435 -59.98828125 -14 C-39.19527394 -16.36461595 -16.5970734 -13.65385905 0 0 Z M-81.578125 53.51513672 C-92.45936369 66.88059603 -100.29880181 82.01205129 -104.9296875 98.58984375 C-105.17460938 99.399375 -105.41953125 100.20890625 -105.671875 101.04296875 C-108.26110605 111.18707944 -108.51740511 125.45356452 -105.9296875 135.58984375 C-103.36085705 138.42568525 -101.75095575 139.44171048 -97.984375 140.12109375 C-80.06658581 139.94499754 -68.07231642 130.91867285 -55.9296875 118.58984375 C-37.51171346 99.09829147 -15.09670356 68.96303913 -15.7265625 40.671875 C-16.15976869 36.23151152 -17.50622864 32.90654319 -20.8046875 29.85546875 C-43.18481755 12.57669187 -67.46795918 37.0351652 -81.578125 53.51513672 Z " fill="#FFF600" transform="translate(1818.9296875,543.41015625)"/>
<path d="M0 0 C3.3 0 6.6 0 10 0 C11.0603227 37.89838031 2.56152361 68.17210655 -22.6171875 96.99609375 C-51.33788931 127.06989853 -90.55867484 141.67886807 -131 147 C-132.17792114 147.15577515 -132.17792114 147.15577515 -133.37963867 147.31469727 C-142.56665841 148.33080268 -151.83510969 148.25814421 -161.06713867 148.29516602 C-163.05158641 148.3066499 -165.03600414 148.3270443 -167.02026367 148.35668945 C-194.59073373 148.76668481 -220.39760218 142.3392487 -241 123 C-244.86620679 118.53899217 -245.40355087 115.4482796 -245.140625 109.7578125 C-245.09421875 109.17773438 -245.0478125 108.59765625 -245 108 C-228.4356174 108.64478805 -212.05423976 110.63953396 -195.75 113.625 C-155.96185414 120.90173774 -116.18515658 110.91160159 -81 92 C-80.24525391 91.59990723 -79.49050781 91.19981445 -78.71289062 90.78759766 C-69.98063473 86.14434038 -61.44488129 81.58864738 -54 75 C-53.18402344 74.29101562 -52.36804688 73.58203125 -51.52734375 72.8515625 C-48.98335374 70.60302834 -46.48650429 68.31179892 -44 66 C-43.35546875 65.42121094 -42.7109375 64.84242188 -42.046875 64.24609375 C-23.35006326 46.68837348 -11.48803405 22.5237833 0 0 Z " fill="#FFF600" transform="translate(828,741)"/>
<path d="M0 0 C0.87167313 -0.00570007 1.74334625 -0.01140015 2.64143372 -0.01727295 C4.4794495 -0.02667766 6.31748181 -0.03323881 8.15551758 -0.03710938 C10.93146058 -0.04678586 13.70665303 -0.07784057 16.48242188 -0.109375 C28.31856801 -0.18083446 38.56655864 0.49443061 49.33203125 5.890625 C57.87701519 9.94918675 66.09525522 8.36427981 75.140625 6.73828125 C87.89733843 4.85704364 100.65860244 5.08598976 113.51953125 5.140625 C115.58463433 5.14564998 117.6497386 5.15021112 119.71484375 5.15429688 C124.73310255 5.16522357 129.7513036 5.18243325 134.76953125 5.203125 C134.76953125 8.173125 134.76953125 11.143125 134.76953125 14.203125 C129.42378729 16.24844987 124.0619968 18.1156197 118.60546875 19.83984375 C117.05441242 20.33964191 115.50364005 20.84032201 113.953125 21.34179688 C111.56016224 22.11501658 109.16629016 22.88378987 106.76708984 23.63745117 C93.33526701 27.86701689 81.36213976 33.08896242 70.3203125 42.07421875 C67.52592478 44.10842039 64.94309427 44.33075574 61.609375 44.3359375 C60.41924805 44.33787109 60.41924805 44.33787109 59.20507812 44.33984375 C57.96854492 44.33404297 57.96854492 44.33404297 56.70703125 44.328125 C55.46469727 44.33392578 55.46469727 44.33392578 54.19726562 44.33984375 C53.00907227 44.33791016 53.00907227 44.33791016 51.796875 44.3359375 C50.71007446 44.33424561 50.71007446 44.33424561 49.60131836 44.33251953 C47.76953125 44.203125 47.76953125 44.203125 45.76953125 43.203125 C44.48704734 40.2691618 43.39407426 37.28328755 42.28125 34.28125 C39.98084507 29.59722135 37.41680712 26.82088402 32.47998047 24.96948242 C30.60850342 24.54953003 30.60850342 24.54953003 28.69921875 24.12109375 C28.00835175 23.96287643 27.31748474 23.80465912 26.60568237 23.64164734 C17.7572061 21.66419949 8.82066285 20.09531201 -0.10546875 18.515625 C-2.68833471 18.05575827 -5.27088467 17.59429544 -7.85281372 17.12919617 C-9.44148842 16.84325545 -11.0307247 16.56041274 -12.62057495 16.28108215 C-18.00649703 15.31511086 -18.00649703 15.31511086 -20.23046875 14.203125 C-19.94564507 12.78506669 -19.65228731 11.36872121 -19.35546875 9.953125 C-19.19304687 9.16421875 -19.030625 8.3753125 -18.86328125 7.5625 C-17.64894953 3.0349916 -17.64894953 3.0349916 -16.23046875 1.203125 C-10.82976792 0.13025998 -5.49261036 0.02836144 0 0 Z " fill="#FFF600" transform="translate(449.23046875,418.796875)"/>
</svg>
